<?xml version="1.0" standalone="no"?>
<!DOCTYPE svg PUBLIC "-//W3C//DTD SVG 20010904//EN"
 "http://www.w3.org/TR/2001/REC-SVG-20010904/DTD/svg10.dtd">
<svg version="1.0" xmlns="http://www.w3.org/2000/svg"
 width="1440.000000pt" height="1440.000000pt" viewBox="0 0 1440.000000 1440.000000"
 preserveAspectRatio="xMidYMid meet">
<metadata>
Created by potrace 1.11, written by Peter Selinger 2001-2013
</metadata>
<g transform="translate(0.000000,1440.000000) scale(0.100000,-0.100000)"
fill="#000000" stroke="none">
<path d="M8750 11619 c0 -2159 1 -2277 18 -2284 9 -4 63 -24 120 -46 127 -48
336 -142 442 -198 54 -28 220 -123 254 -144 499 -315 874 -642 1226 -1072 126
-154 175 -219 283 -376 176 -256 372 -608 482 -864 59 -140 78 -184 92 -215 9
-19 11 946 10 3725 l-2 3750 -1462 0 -1463 0 0 -2276z"/>
<path d="M2710 7567 c0 -1034 2 -1878 4 -1876 2 2 7 27 10 54 4 28 9 61 11 75
3 14 7 34 9 45 100 497 260 930 503 1353 131 229 344 528 521 732 108 123 439
448 562 551 128 107 327 261 358 278 11 6 26 17 34 24 42 41 276 187 371 231
197 93 225 105 387 168 l160 63 0 91 0 92 -1465 -1 -1465 0 0 -1880z"/>
<path d="M7158 9335 c-2 -1 -52 -5 -113 -9 -60 -4 -123 -9 -140 -11 -16 -2
-70 -9 -120 -15 -49 -6 -104 -13 -121 -16 -25 -3 -231 -42 -314 -59 -37 -8
-221 -56 -285 -75 -38 -12 -77 -23 -85 -25 -125 -31 -548 -196 -752 -293 -205
-97 -510 -315 -838 -597 -81 -70 -384 -378 -466 -476 -354 -414 -628 -889
-785 -1354 -12 -33 -23 -67 -26 -75 -3 -8 -7 -19 -9 -25 -1 -5 -17 -57 -34
-115 -17 -58 -46 -175 -65 -260 -32 -147 -38 -180 -50 -267 -3 -21 -8 -54 -11
-73 -7 -40 -10 -75 -19 -180 -4 -41 -8 -91 -11 -110 -11 -108 -4 -589 11 -690
2 -14 7 -54 10 -90 5 -55 25 -188 40 -280 10 -57 25 -131 45 -220 12 -52 23
-104 26 -115 2 -11 18 -67 34 -125 257 -880 693 -1556 1370 -2126 52 -44 111
-91 130 -105 19 -13 41 -30 48 -37 7 -6 57 -42 110 -79 53 -37 99 -71 100 -75
2 -4 7 -8 12 -8 5 0 35 -17 67 -38 32 -21 94 -60 137 -86 278 -168 649 -335
931 -420 66 -20 134 -40 150 -45 38 -12 162 -42 195 -48 14 -2 41 -8 60 -13
19 -5 51 -11 70 -14 19 -3 78 -12 130 -20 348 -55 733 -62 1105 -20 51 5 66 7
145 19 25 4 59 9 75 11 17 2 41 7 55 9 14 3 34 7 45 9 139 28 326 77 450 118
l40 13 -2 865 c-1 476 -3 1222 -5 1659 l-3 793 -20 -28 c-102 -142 -226 -271
-345 -360 -76 -58 -217 -144 -278 -170 -248 -108 -428 -144 -687 -139 -88 2
-169 5 -180 8 -11 2 -36 7 -55 11 -61 11 -74 14 -120 26 -378 101 -692 328
-903 653 -113 174 -191 377 -233 607 -10 59 -13 362 -4 420 18 104 20 115 25
140 3 14 8 36 11 50 12 59 67 208 109 293 146 301 391 550 692 701 78 40 236
102 283 111 8 2 33 8 55 13 22 6 60 14 85 17 25 4 70 11 100 15 72 11 339 5
415 -9 103 -19 248 -58 300 -81 11 -5 45 -19 75 -32 196 -80 447 -272 572
-437 24 -31 46 -58 49 -61 4 -3 28 -38 54 -79 104 -160 193 -389 221 -567 3
-20 8 -46 10 -58 3 -11 7 -554 9 -1206 3 -652 7 -1592 10 -2090 2 -498 4
-1014 5 -1147 l0 -243 1465 0 1465 0 1 2033 c1 1117 2 2046 4 2062 15 142 21
487 11 615 -2 25 -7 113 -11 195 -8 179 -40 328 -139 635 -27 85 -119 335
-146 395 -9 22 -30 69 -46 105 -68 157 -239 484 -296 567 -15 23 -28 44 -28
47 0 9 -183 281 -243 361 -81 107 -213 271 -257 319 -377 416 -715 698 -1134
943 -410 241 -924 431 -1351 499 -16 2 -41 6 -55 9 -98 16 -246 33 -345 41
-70 6 -482 13 -487 9z"/>
<path d="M2710 2428 l0 -1915 1465 0 1466 -1 -3 80 -3 79 -95 40 c-350 146
-761 381 -1040 595 -343 264 -599 511 -834 803 -325 405 -561 840 -746 1377
-37 108 -107 351 -117 404 -2 14 -8 41 -13 60 -5 19 -12 50 -15 69 -3 19 -8
37 -10 40 -2 4 -6 27 -10 51 -3 25 -10 61 -15 80 -5 19 -12 60 -15 90 -4 30
-9 57 -11 59 -2 2 -4 -858 -4 -1911z"/>
</g>
</svg>
